<svg width="26" height="25" viewBox="0 0 26 25" fill="none" xmlns="http://www.w3.org/2000/svg">
<path fill-rule="evenodd" clip-rule="evenodd" d="M17.4928 25V15.3188H20.7428L21.229 11.5463H17.4915V9.1375C17.4915 8.045 17.7953 7.3 19.3628 7.3H21.3603V3.925C20.3929 3.82205 19.4206 3.77198 18.4478 3.775C15.5678 3.775 13.5965 5.53375 13.5965 8.7625V11.5463H10.3365V15.3188H13.5953V25H1.71655C0.954048 25 0.336548 24.3825 0.336548 23.62V1.38C0.336548 0.6175 0.954048 0 1.71655 0H23.9565C24.719 0 25.3365 0.6175 25.3365 1.38V23.62C25.3365 24.3825 24.719 25 23.9565 25H17.4928Z" fill="#D9D9D9"/>
</svg>
