<svg width="26" height="25" viewBox="0 0 26 25" fill="none" xmlns="http://www.w3.org/2000/svg">
<path d="M25.3323 10.0519H24.3254V9.99998H13.0754V15H20.1398C19.1092 17.9106 16.3398 20 13.0754 20C8.93356 20 5.57544 16.6418 5.57544 12.5C5.57544 8.35811 8.93356 4.99999 13.0754 4.99999C14.9873 4.99999 16.7267 5.72124 18.0511 6.89936L21.5867 3.36374C19.3542 1.28312 16.3679 0 13.0754 0C6.17231 0 0.575439 5.59687 0.575439 12.5C0.575439 19.4031 6.17231 25 13.0754 25C19.9786 25 25.5754 19.4031 25.5754 12.5C25.5754 11.6619 25.4892 10.8437 25.3323 10.0519Z" fill="#D9D9D9"/>
<path d="M2.01672 6.68186L6.1236 9.69373C7.23485 6.94249 9.9261 4.99999 13.0755 4.99999C14.9873 4.99999 16.7267 5.72124 18.0511 6.89936L21.5867 3.36374C19.3542 1.28312 16.368 0 13.0755 0C8.27422 0 4.11047 2.71062 2.01672 6.68186Z" fill="#D9D9D9"/>
<path d="M13.0754 24.9999C16.3041 24.9999 19.2379 23.7643 21.456 21.7549L17.5873 18.4812C16.2901 19.4677 14.7051 20.0012 13.0754 19.9999C9.82414 19.9999 7.06352 17.9268 6.02352 15.0337L1.94727 18.1743C4.01602 22.2224 8.21727 24.9999 13.0754 24.9999Z" fill="#D9D9D9"/>
<path d="M25.3323 10.0519H24.3254V10H13.0754V15H20.1398C19.6468 16.3852 18.7588 17.5957 17.5854 18.4819L17.5873 18.4806L21.4561 21.7544C21.1823 22.0031 25.5754 18.75 25.5754 12.5C25.5754 11.6619 25.4892 10.8437 25.3323 10.0519Z" fill="#D9D9D9"/>
</svg>
