<svg width="31" height="25" viewBox="0 0 31 25" fill="none" xmlns="http://www.w3.org/2000/svg">
<path d="M30.151 2.95944C29.0276 3.46976 27.836 3.80473 26.6159 3.95321C27.8868 3.17214 28.8626 1.93527 29.3221 0.461557C28.114 1.19671 26.7922 1.71468 25.4138 1.99307C24.291 0.766537 22.6915 0 20.9212 0C17.5221 0 14.7662 2.82582 14.7662 6.3111C14.7662 6.80583 14.8206 7.28745 14.9255 7.74949C9.8103 7.4862 5.27514 4.97366 2.2394 1.15527C1.70971 2.0874 1.4062 3.17165 1.4062 4.32813C1.4062 6.51779 2.49288 8.44945 4.14428 9.58129C3.16688 9.54991 2.21098 9.27921 1.35639 8.79181C1.35604 8.81824 1.35604 8.84468 1.35604 8.87124C1.35604 11.9291 3.4776 14.48 6.29315 15.0598C5.38681 15.3125 4.43611 15.3495 3.5137 15.1679C4.29686 17.6753 6.56995 19.4999 9.26315 19.551C7.1567 21.2436 4.50276 22.2527 1.61924 22.2527C1.12237 22.2527 0.632524 22.2227 0.151001 22.1644C2.87479 23.9552 6.10999 25 9.58577 25C20.9069 25 27.0976 15.383 27.0976 7.04303C27.0976 6.7693 27.0917 6.49712 27.0798 6.22651C28.2847 5.3333 29.3247 4.22697 30.151 2.95944Z" fill="#D9D9D9"/>
</svg>
